<svg width="380" height="210" viewBox="0 0 380 210" fill="none" xmlns="http://www.w3.org/2000/svg">
<g filter="url(#filter0_d_0_687)">
<rect x="60" y="57" width="260" height="90" rx="12" fill="white"/>
<rect x="60.5" y="57.5" width="259" height="89" rx="11.5" stroke="#F9F9F7"/>
</g>
<path d="M167.807 113.405H171.605L170.961 110.454V92.921H167.332V100.925C166.247 99.6698 164.721 98.9237 162.957 98.9237C159.328 98.9237 156.513 101.942 156.513 106.317C156.513 110.726 159.328 113.71 162.957 113.71C164.754 113.71 166.314 112.93 167.4 111.607L167.807 113.405ZM239.567 102.858C240.313 102.858 240.992 103.061 241.602 103.502L243.332 99.6358C242.518 99.1271 241.602 98.9237 240.686 98.9237C239.059 98.9237 237.668 99.6698 236.82 101.06L236.447 99.2628H232.717L233.327 102.044V113.439H236.956V104.384C237.431 103.434 238.346 102.858 239.567 102.858ZM250.182 109.912C248.08 109.912 246.52 108.521 246.52 106.351C246.52 104.146 248.08 102.79 250.182 102.79C252.319 102.79 253.845 104.146 253.845 106.351C253.845 108.487 252.319 109.912 250.182 109.912ZM160.04 106.317C160.04 104.112 161.6 102.756 163.703 102.756C165.84 102.756 167.366 104.112 167.366 106.317C167.366 108.487 165.84 109.878 163.703 109.878C161.6 109.912 160.04 108.487 160.04 106.317ZM266.291 109.912C264.188 109.912 262.628 108.521 262.628 106.351C262.628 104.146 264.188 102.79 266.291 102.79C268.428 102.79 269.954 104.146 269.954 106.351C269.92 108.487 268.394 109.912 266.291 109.912ZM180.422 102.552C182.288 102.552 183.509 103.434 183.915 105.062H176.929C177.302 103.4 178.557 102.552 180.422 102.552ZM223.798 102.552C225.663 102.552 226.884 103.434 227.291 105.062H220.304C220.745 103.4 221.966 102.552 223.798 102.552ZM206.095 113.405H211.928L215.726 99.195H211.758L209.011 110.726L206.23 99.2289H202.33L206.095 113.405ZM196.769 113.405H200.397V99.195H196.769V113.405ZM180.965 113.676C183 113.676 184.967 113.099 186.629 112.048L185.238 108.928C183.949 109.64 182.457 110.013 180.999 110.013C179.1 110.013 177.777 109.267 177.167 107.877H187.409C187.51 107.334 187.578 106.859 187.578 106.215C187.578 101.806 184.526 98.8898 180.49 98.8898C176.387 98.8898 173.402 101.874 173.402 106.283C173.368 110.793 176.353 113.676 180.965 113.676ZM273.447 106.317C273.447 101.908 270.395 98.9237 266.291 98.9237C262.154 98.9237 259.135 101.942 259.135 106.317C259.135 110.692 262.187 113.71 266.291 113.71C270.395 113.71 273.447 110.726 273.447 106.317ZM224.306 113.71C226.341 113.71 228.308 113.167 229.97 112.082L228.579 108.962C227.291 109.674 225.798 110.047 224.34 110.047C222.441 110.047 221.118 109.301 220.508 107.911H230.75C230.852 107.368 230.919 106.893 230.919 106.249C230.919 101.84 227.867 98.9237 223.831 98.9237C219.728 98.9237 216.744 101.908 216.744 106.317C216.744 110.861 219.694 113.71 224.306 113.71ZM250.182 113.71C254.32 113.71 257.338 110.692 257.338 106.317C257.338 101.942 254.286 98.9237 250.182 98.9237C246.045 98.9237 243.026 101.942 243.026 106.317C243.026 110.692 246.045 113.71 250.182 113.71ZM189.884 113.405H193.513V92.921H189.884V113.405ZM198.6 97.2619C199.855 97.2619 200.872 96.2445 200.872 94.9558C200.872 93.6671 199.889 92.6497 198.6 92.6497C197.311 92.6497 196.294 93.6671 196.294 94.9558C196.294 96.2445 197.277 97.2619 198.6 97.2619ZM136.233 80L134.165 99.6698L130.638 83.0861L119.514 85.4261L123.007 102.01L107 105.401L109.849 118.627L138.031 124.63L144.474 110.217L147.526 81.187L136.233 80ZM127.314 108.555C126.738 109.098 125.991 109.03 125.144 108.759C124.33 108.487 123.991 107.538 124.262 106.317C124.499 105.435 125.551 105.299 126.127 105.299C126.331 105.299 126.534 105.333 126.738 105.435C127.111 105.605 127.755 105.978 127.891 106.52C128.094 107.334 127.891 108.012 127.314 108.555ZM135.487 109.437C135.046 110.183 133.961 110.285 132.842 109.742C132.096 109.369 132.096 108.487 132.198 107.911C132.232 107.605 132.367 107.3 132.571 107.063C132.842 106.724 133.283 106.283 133.758 106.283C134.605 106.249 135.284 106.622 135.691 107.3C136.098 107.979 135.894 108.725 135.487 109.437Z" fill="#00CCBC"/>
<defs>
<filter id="filter0_d_0_687" x="0.425537" y="0.40426" width="379.149" height="209.149" filterUnits="userSpaceOnUse" color-interpolation-filters="sRGB">
<feFlood flood-opacity="0" result="BackgroundImageFix"/>
<feColorMatrix in="SourceAlpha" type="matrix" values="0 0 0 0 0 0 0 0 0 0 0 0 0 0 0 0 0 0 127 0" result="hardAlpha"/>
<feOffset dy="2.97872"/>
<feGaussianBlur stdDeviation="29.7872"/>
<feComposite in2="hardAlpha" operator="out"/>
<feColorMatrix type="matrix" values="0 0 0 0 0 0 0 0 0 0 0 0 0 0 0 0 0 0 0.08 0"/>
<feBlend mode="normal" in2="BackgroundImageFix" result="effect1_dropShadow_0_687"/>
<feBlend mode="normal" in="SourceGraphic" in2="effect1_dropShadow_0_687" result="shape"/>
</filter>
</defs>
</svg>
